# xmcd CD database file
#
# Track frame offsets:
#	150
#	28747
#	65043
#	88787
#	113675
#	136397
#	169949
#	182870
#	217701
#	240861
#	267787
#	290349
#
# Disc length: 4234 seconds
#
# Revision: 0
# Processed by: cddbd v1.4PL0 Copyright (c) Steve Scherf et al.
# Submitted via: CDex 1.50beta10
#
DISCID=a610880c
DTITLE=Enrico Pieranunzi - Current Conditions
DYEAR=2003
DGENRE=Jazz
TTITLE0=How Can You Not?
TTITLE1=Alle Rive Lontane
TTITLE2=Ravel's Walk
TTITLE3=Illusions Market
TTITLE4=Simul
TTITLE5=Night After Night
TTITLE6=Joey's Magic Tricks
TTITLE7=When You Look At Me
TTITLE8=What's Really Going On
TTITLE9=If Only For A Time
TTITLE10=Trio Reflections
TTITLE11=Broken Time
EXTD=YEAR: 2003
EXTT0=
EXTT1=
EXTT2=
EXTT3=
EXTT4=
EXTT5=
EXTT6=
EXTT7=
EXTT8=
EXTT9=
EXTT10=
EXTT11=
PLAYORDER=
